# xmcd CD database file
#
# Track frame offsets:
#	150
#	17098
#	33769
#	48471
#	55290
#	66050
#	80940
#	91295
#	100182
#	117798
#	132851
#	152520
#	171621
#	182840
#	198483
#	212051
#	226861
#	243046
#	258638
#	273421
#
# Disc length: 3878 seconds
#
# Revision: 1
# Processed by: cddbd v1.4PL0 Copyright (c) Steve Scherf et al.
# Submitted via: CDex 1.50Beta7
#
DISCID=150f2414
DTITLE=Almir Sater - As 20 mais de Almir Sater
DYEAR=2003
DGENRE=Country
TTITLE0=A saudade da estrada longa
TTITLE1=Boiada
TTITLE2=Cabecinha no ombro
TTITLE3=Cabelo loiro
TTITLE4=Canta viola
TTITLE5=Capu azul
TTITLE6=Chalana
TTITLE7=Jesus menino
TTITLE8=O tempo e o vento
TTITLE9=Razão
TTITLE10=Rio de lagrimas
TTITLE11=Sonhos
TTITLE12=Tennes waltz
TTITLE13=Terra de sonhos
TTITLE14=Tocando em frente
TTITLE15=Trem do Pantanal
TTITLE16=Tristeza do Jeca
TTITLE17=Um violeiro toca
TTITLE18=Varandas
TTITLE19=Vaso quebrado
EXTD=YEAR: 2003
EXTT0=
EXTT1=
EXTT2=
EXTT3=
EXTT4=
EXTT5=
EXTT6=
EXTT7=
EXTT8=
EXTT9=
EXTT10=
EXTT11=
EXTT12=
EXTT13=
EXTT14=
EXTT15=
EXTT16=
EXTT17=
EXTT18=
EXTT19=
PLAYORDER=
